<?xml version="1.0"?>

<!-- License: CC Attribution. Made by Lima Studio: https://dribbble.com/limastd -->
<svg width="512" height="512" viewBox="0 0 64 64" xmlns="http://www.w3.org/2000/svg">

  <defs>

    <style>
      .cls-1{fill:#e5936b;}.cls-2{fill:#e17c46;}.cls-3{fill:#efc89d;}.cls-4{fill:#ebb87f;}.cls-5{fill:#748a95;}.cls-6{fill:#617880;}.cls-7{fill:#252b48;}</style>

  </defs>

  <g data-name="Table" id="Table-9">

    <path class="cls-1"
      d="M36.4,38.65v2.92A2.59,2.59,0,0,0,39,44.16h11.9l2.32-17.44-16.81.93v4.46l1.77,4.21Z"
      id="rect44157-3-8" />

    <path class="cls-2" d="M53.21,26.18l-5.52.57V44.16h3.2Z" id="path152711-1" />

    <path class="cls-2" d="M36.4,38.65h2a1.59,1.59,0,0,0,1.6-1.6V33.71a1.59,1.59,0,0,0-1.6-1.6h-2Z"
      id="path16336-0-4-07-2" />

    <path class="cls-3" d="M13.11,28.48h39l0-7.5-.14-1.9-5.46-2.44H12.83L11.41,23.8Z"
      id="path46195-8-9" />

    <path class="cls-4" d="M52.34,19.37,47.69,20v8.52h4.38l0-7.5Z" id="path157133-4" />

    <path class="cls-5" d="M50.89,20V47.67a1.88,1.88,0,1,0,3.75,0V20l-1.87-1.61Z"
      id="path32739-8-3-4-4-3" />

    <path class="cls-5" d="M9.36,20V47.67a1.88,1.88,0,1,0,3.75,0V20l-1.88-1.61Z"
      id="path42600-4-9-9" />

    <path class="cls-6" d="M11.23,18.35,9.36,20V24.2h3.75V20Zm41.54,0L50.89,20V24.2h3.75V20Z"
      id="rect136481-5-0" />

    <path class="cls-1"
      d="M9.36,14.45H54.64A1.36,1.36,0,0,1,56,15.81V18.6A1.36,1.36,0,0,1,54.64,20H9.36A1.36,1.36,0,0,1,8,18.6V15.81A1.36,1.36,0,0,1,9.36,14.45Z"
      id="rect30191-6-3-5-0-8" />

    <path class="cls-2"
      d="M50.64,14.45A1.36,1.36,0,0,1,52,15.81V18.6A1.36,1.36,0,0,1,50.64,20h4A1.36,1.36,0,0,0,56,18.6V15.81a1.36,1.36,0,0,0-1.36-1.36Z"
      id="path146812-4-8" />

    <path class="cls-7" d="M24.84,23.15H20.27a1,1,0,0,0,0,2h4.57a1,1,0,0,0,0-2Z" />

    <path class="cls-7" d="M43.73,23.15H39.16a1,1,0,0,0,0,2h4.57a1,1,0,0,0,0-2Z" />

    <path class="cls-7"
      d="M54.64,13.45H9.36A2.36,2.36,0,0,0,7,15.81V18.6a2.36,2.36,0,0,0,1.36,2.13V47.67a2.88,2.88,0,1,0,5.75,0V29.48H35.4V41.57A3.59,3.59,0,0,0,39,45.16h10.9v2.51a2.88,2.88,0,1,0,5.75,0V20.73A2.36,2.36,0,0,0,57,18.6V15.81A2.36,2.36,0,0,0,54.64,13.45ZM9,15.81a.36.36,0,0,1,.36-.36H54.64a.36.36,0,0,1,.36.36V18.6a.36.36,0,0,1-.36.36H9.36A.36.36,0,0,1,9,18.6ZM33,27.48V21H49.89v6.52ZM11.24,48.55a.87.87,0,0,1-.88-.88V21h1.75V47.67A.87.87,0,0,1,11.24,48.55ZM14.11,21H31v6.52H14.11ZM37.4,33.11h1a.59.59,0,0,1,.6.6v3.34a.59.59,0,0,1-.6.6h-1Zm12.49,10H39a1.59,1.59,0,0,1-1.59-1.59V39.65h1a2.59,2.59,0,0,0,2.6-2.6V33.71a2.6,2.6,0,0,0-2.6-2.6h-1V29.48H49.89Zm2.88,5.39a.87.87,0,0,1-.88-.88V21h1.75V47.67A.87.87,0,0,1,52.77,48.55Z" />

  </g>

</svg>
